<svg width="1083" height="656" viewBox="0 0 1083 656" fill="none" xmlns="http://www.w3.org/2000/svg">
<path d="M762.5 214.5C762.5 332.965 666.465 429 548 429C429.535 429 333.5 332.965 333.5 214.5C333.5 96.0349 429.535 2.81179e-06 548 2.81179e-06C666.465 2.81179e-06 762.5 96.0349 762.5 214.5Z" fill="#DAD3D5" fill-opacity="0.67"/>
<circle cx="247" cy="385.844" r="225" fill="#A89FAD" fill-opacity="0.5"/>
<path d="M539 512.844C539 562.55 498.706 602.844 449 602.844C399.294 602.844 359 562.55 359 512.844C359 463.139 399.294 422.844 449 422.844C498.706 422.844 539 463.139 539 512.844Z" fill="#2A2035" fill-opacity="0.46"/>
<circle cx="533" cy="369.844" r="143" fill="#E4E6C3" fill-opacity="0.4"/>
<circle cx="135" cy="214.844" r="135" fill="#222725" fill-opacity="0.4"/>
<circle cx="716" cy="512.844" r="143" fill="#C4B3C6" fill-opacity="0.4"/>
<circle cx="755" cy="160.844" r="160" fill="#121113" fill-opacity="0.4"/>
<circle cx="889" cy="286.844" r="194" fill="#795E70" fill-opacity="0.4"/>
<path d="M127.35 406.644C131.31 415.644 138.15 420.144 147.87 420.144C157.59 420.144 164.52 415.554 168.66 406.374C172.8 397.194 174.87 382.074 174.87 361.014C174.87 339.774 172.8 324.564 168.66 315.384C164.52 306.024 157.59 301.344 147.87 301.344C138.15 301.344 131.31 306.024 127.35 315.384C123.39 324.564 121.41 339.774 121.41 361.014C121.41 382.254 123.39 397.464 127.35 406.644ZM147.33 425.544C130.23 425.544 114.75 419.964 100.89 408.804C87.03 397.644 80.1 381.804 80.1 361.284C80.1 350.304 82.08 340.494 86.04 331.854C90.18 323.214 95.58 316.374 102.24 311.334C109.08 306.294 116.37 302.514 124.11 299.994C131.85 297.294 139.77 295.944 147.87 295.944C155.97 295.944 163.89 297.294 171.63 299.994C179.55 302.514 186.84 306.294 193.5 311.334C200.34 316.374 205.83 323.214 209.97 331.854C214.11 340.494 216.18 350.214 216.18 361.014C216.18 371.814 214.11 381.444 209.97 389.904C205.83 398.364 200.34 405.114 193.5 410.154C179.82 420.414 164.43 425.544 147.33 425.544ZM485.99 277.044H472.49V417.444H485.99V422.844H418.49V417.444H431.99V287.034L378.53 425.544H372.32L312.38 283.254V417.444H333.98V422.844H290.78V417.444H306.98V277.044H290.51V271.644H350.72L392.84 372.894L431.99 271.644H485.99V277.044ZM598.089 422.844V408.534C594.669 413.394 589.269 417.534 581.889 420.954C574.689 424.194 566.859 425.814 558.399 425.814C526.359 425.814 510.339 408.444 510.339 373.704V304.044H496.839V298.644H550.839V379.644C550.839 392.424 552.729 401.514 556.509 406.914C560.289 412.314 565.959 415.014 573.519 415.014C583.599 415.014 591.789 409.614 598.089 398.814V304.044H584.589V298.644H638.589V417.444H652.089V422.844H598.089ZM738.552 422.844H671.052V417.444H684.552V304.044H671.052V298.644H725.052V330.774C726.672 321.954 729.552 314.754 733.692 309.174C738.012 303.594 742.692 299.904 747.732 298.104C752.952 296.304 757.902 295.404 762.582 295.404C767.442 295.404 772.032 296.304 776.352 298.104C780.852 299.724 784.182 303.144 786.342 308.364C788.502 313.404 788.592 318.534 786.612 323.754C784.632 328.794 781.122 332.394 776.082 334.554C771.222 336.714 766.722 336.984 762.582 335.364C758.442 333.744 755.472 331.584 753.672 328.884C751.872 326.004 750.612 323.304 749.892 320.784C748.092 314.124 745.662 310.794 742.602 310.794C739.182 310.794 735.402 316.734 731.262 328.614C727.122 340.314 725.052 352.734 725.052 365.874V417.444H738.552V422.844ZM932.52 417.444C930.72 419.244 927.3 420.864 922.26 422.304C917.22 423.564 911.37 424.194 904.71 424.194C889.95 424.194 880.68 419.784 876.9 410.964C867.9 420.324 854.13 425.004 835.59 425.004C825.69 425.004 817.5 422.754 811.02 418.254C804.72 413.574 801.57 406.734 801.57 397.734C801.57 385.674 806.25 376.404 815.61 369.924C824.97 363.264 841.35 358.584 864.75 355.884L875.55 354.534V341.304C875.55 325.644 874.38 315.114 872.04 309.714C869.7 304.314 865.02 301.614 858 301.614C851.16 301.614 846.75 302.604 844.77 304.584C842.79 306.384 842.07 308.544 842.61 311.064C843.15 313.404 844.05 316.554 845.31 320.514C846.57 324.474 847.2 327.624 847.2 329.964C847.2 335.544 845.22 340.314 841.26 344.274C837.48 348.054 832.8 349.944 827.22 349.944C821.82 349.944 817.14 348.054 813.18 344.274C809.22 340.314 807.24 335.544 807.24 329.964C807.24 320.784 811.92 312.954 821.28 306.474C830.82 299.814 844.95 296.484 863.67 296.484C882.57 296.484 895.98 300.174 903.9 307.554C912 314.934 916.05 327.984 916.05 346.704V395.304C916.05 404.844 917.22 410.874 919.56 413.394C921.9 415.734 926.22 416.184 932.52 414.744V417.444ZM839.1 392.334C840 399.174 842.52 404.484 846.66 408.264C850.8 411.864 855.57 413.664 860.97 413.664C866.55 413.664 871.41 410.964 875.55 405.564V359.664L865.83 361.014C857.55 362.094 850.8 365.244 845.58 370.464C840.54 375.684 838.38 382.974 839.1 392.334ZM1002.7 417.444H1016.2V422.844H948.698V417.444H962.198V247.344H948.698V241.944H1002.7V417.444Z" fill="black"/>
</svg>
